<?xml version="1.0" standalone="no"?>
<!DOCTYPE svg PUBLIC "-//W3C//DTD SVG 20010904//EN"
 "http://www.w3.org/TR/2001/REC-SVG-20010904/DTD/svg10.dtd">
<svg version="1.0" xmlns="http://www.w3.org/2000/svg"
 width="200.000000pt" height="80.000000pt" viewBox="0 0 200.000000 80.000000"
 preserveAspectRatio="xMidYMid meet">

<g transform="translate(0.000000,80.000000) scale(0.100000,-0.100000)"
fill="#000000" stroke="none">
<path d="M927 654 c-37 -19 -67 -37 -67 -39 0 -3 30 10 68 29 l67 34 69 -35
c37 -19 70 -33 72 -31 2 2 -29 20 -69 40 l-72 36 -68 -34z"/>
<path d="M403 553 c75 -2 199 -2 275 0 75 1 13 3 -138 3 -151 0 -213 -2 -137
-3z"/>
<path d="M1308 553 c79 -2 205 -2 280 0 75 1 11 3 -143 3 -154 0 -216 -2 -137
-3z"/>
<path d="M110 469 c0 -5 5 -7 10 -4 6 3 10 8 10 11 0 2 -4 4 -10 4 -5 0 -10
-5 -10 -11z"/>
<path d="M243 415 c0 -27 2 -38 4 -22 2 15 2 37 0 50 -2 12 -4 0 -4 -28z"/>
<path d="M333 415 c0 -27 2 -38 4 -22 2 15 2 37 0 50 -2 12 -4 0 -4 -28z"/>
<path d="M532 430 c0 -19 2 -27 5 -17 2 9 2 25 0 35 -3 9 -5 1 -5 -18z"/>
<path d="M653 415 c0 -27 2 -38 4 -22 2 15 2 37 0 50 -2 12 -4 0 -4 -28z"/>
<path d="M696 445 c4 -8 1 -21 -5 -29 -8 -10 -6 -17 12 -32 l22 -19 -18 22
c-12 14 -15 23 -8 28 14 8 14 45 1 45 -5 0 -7 -7 -4 -15z"/>
<path d="M803 415 c0 -27 2 -38 4 -22 2 15 2 37 0 50 -2 12 -4 0 -4 -28z"/>
<path d="M852 414 c1 -46 2 -46 5 -10 l4 39 40 -39 c21 -21 39 -34 38 -29 0 6
-21 27 -45 49 l-44 39 2 -49z"/>
<path d="M986 438 c-3 -13 -5 -32 -5 -43 1 -12 4 -9 8 10 l7 30 17 -32 c26
-49 31 -40 6 10 -27 53 -25 52 -33 25z"/>
<path d="M1072 440 c0 -14 2 -19 5 -12 2 6 2 18 0 25 -3 6 -5 1 -5 -13z"/>
<path d="M1132 448 c-7 -7 -11 -23 -11 -37 l2 -26 4 25 c3 14 10 31 15 38 13
15 6 16 -10 0z"/>
<path d="M1201 443 c7 -12 15 -20 18 -17 3 2 -3 12 -13 22 -17 16 -18 16 -5
-5z"/>
<path d="M1253 415 c0 -27 2 -38 4 -22 2 15 2 37 0 50 -2 12 -4 0 -4 -28z"/>
<path d="M1294 440 c0 -13 4 -16 10 -10 7 7 7 13 0 20 -6 6 -10 3 -10 -10z"/>
<path d="M1353 415 c0 -27 2 -38 4 -22 2 15 2 37 0 50 -2 12 -4 0 -4 -28z"/>
<path d="M1403 415 c0 -27 2 -38 4 -22 2 15 2 37 0 50 -2 12 -4 0 -4 -28z"/>
<path d="M1493 415 c0 -27 2 -38 4 -22 2 15 2 37 0 50 -2 12 -4 0 -4 -28z"/>
<path d="M1567 447 c-3 -8 1 -14 9 -14 16 0 19 13 5 21 -5 3 -11 0 -14 -7z"/>
<path d="M1653 415 c0 -27 2 -38 4 -22 2 15 2 37 0 50 -2 12 -4 0 -4 -28z"/>
<path d="M1696 445 c4 -8 1 -21 -5 -29 -8 -10 -6 -17 12 -32 l22 -19 -18 22
c-12 14 -15 23 -8 28 14 8 14 45 1 45 -5 0 -7 -7 -4 -15z"/>
<path d="M1763 415 c0 -27 2 -38 4 -22 2 15 2 37 0 50 -2 12 -4 0 -4 -28z"/>
<path d="M1837 447 c-3 -8 1 -14 8 -14 7 0 11 6 8 14 -3 7 -6 13 -8 13 -2 0
-5 -6 -8 -13z"/>
<path d="M201 425 c0 -17 -7 -38 -13 -45 -7 -8 -5 -8 5 1 13 11 17 26 14 45
l-4 29 -2 -30z"/>
<path d="M450 442 c0 -5 11 -18 25 -30 14 -13 23 -28 19 -34 -4 -7 -3 -8 4 -4
16 10 16 11 -18 46 -16 17 -30 27 -30 22z"/>
<path d="M1590 414 c0 -6 7 -19 16 -30 14 -18 14 -18 3 6 -14 31 -19 36 -19
24z"/>
<path d="M1811 393 c-10 -26 -10 -27 4 -9 8 11 15 23 15 28 0 15 -7 8 -19 -19z"/>
<path d="M1860 414 c0 -6 7 -19 16 -30 14 -18 14 -18 3 6 -14 31 -19 36 -19
24z"/>
<path d="M1082 390 c0 -14 2 -19 5 -12 2 6 2 18 0 25 -3 6 -5 1 -5 -13z"/>
<path d="M633 283 c202 -2 532 -2 735 0 202 1 36 2 -368 2 -404 0 -570 -1
-367 -2z"/>
<path d="M479 241 c8 -5 12 -18 8 -30 -6 -24 11 -29 19 -6 7 17 -12 45 -30 45
-6 0 -5 -4 3 -9z"/>
<path d="M1152 238 c-7 -7 -12 -20 -12 -30 0 -20 -16 -24 -23 -5 -3 9 -9 9
-26 -1 -12 -7 -21 -8 -21 -2 0 5 -11 10 -25 10 -18 0 -25 -5 -25 -19 0 -11 -3
-26 -6 -35 -3 -9 -2 -16 4 -16 6 0 13 14 17 31 8 34 27 34 35 -1 8 -32 25 -36
44 -8 16 22 16 22 16 1 0 -11 -7 -24 -16 -27 -17 -7 -10 -26 11 -26 9 0 18 21
25 58 7 31 17 60 22 63 6 4 7 9 1 12 -6 4 -15 1 -21 -5z m-51 -81 c-8 -8 -11
-5 -11 9 0 27 14 41 18 19 2 -9 -1 -22 -7 -28z"/>
<path d="M437 233 c-4 -3 -7 -13 -7 -22 1 -13 3 -13 11 2 11 19 8 33 -4 20z"/>
<path d="M720 230 c0 -5 5 -10 10 -10 6 0 10 5 10 10 0 6 -4 10 -10 10 -5 0
-10 -4 -10 -10z"/>
<path d="M830 230 c0 -5 5 -10 10 -10 6 0 10 5 10 10 0 6 -4 10 -10 10 -5 0
-10 -4 -10 -10z"/>
<path d="M1290 230 c0 -5 5 -10 10 -10 6 0 10 5 10 10 0 6 -4 10 -10 10 -5 0
-10 -4 -10 -10z"/>
<path d="M1534 213 c-11 -50 -18 -60 -22 -30 -5 37 -49 39 -58 2 -8 -31 -25
-33 -21 -2 2 17 -3 22 -23 22 -22 0 -25 -5 -27 -35 l-2 -35 14 33 c18 39 27
41 23 5 -3 -27 -3 -28 65 -29 37 0 70 3 73 8 3 4 0 8 -6 8 -6 0 -9 8 -6 18 2
9 7 27 11 40 4 13 2 22 -4 22 -6 0 -13 -12 -17 -27z m-53 -56 c-8 -8 -11 -5
-11 9 0 27 14 41 18 19 2 -9 -1 -22 -7 -28z"/>
<path d="M457 213 c-14 -51 -16 -73 -8 -73 11 0 21 25 26 63 4 30 -11 38 -18
10z"/>
<path d="M676 195 c-4 -20 -5 -39 -2 -44 3 -5 28 -8 55 -7 46 2 49 1 40 -16
-7 -14 -6 -18 5 -18 9 0 19 16 25 38 16 54 14 62 -14 62 -18 0 -28 -7 -35 -25
-12 -32 -24 -32 -17 0 3 16 0 24 -7 22 -6 -2 -13 -12 -14 -23 -8 -42 -24 -39
-17 4 8 51 -10 58 -19 7z m112 -12 c-2 -9 -8 -18 -15 -20 -7 -3 -9 3 -6 16 6
25 26 28 21 4z"/>
<path d="M956 203 c-14 -49 -18 -93 -7 -93 6 0 11 6 11 13 0 7 10 17 23 22 22
10 38 65 18 65 -5 0 -16 3 -24 6 -9 3 -17 -2 -21 -13z m34 -22 c0 -11 -4 -23
-10 -26 -6 -4 -10 5 -10 19 0 14 5 26 10 26 6 0 10 -9 10 -19z"/>
<path d="M516 194 c-9 -25 -7 -56 4 -49 6 3 10 18 10 32 0 18 4 24 15 19 8 -3
15 -1 15 4 0 16 -37 11 -44 -6z"/>
<path d="M570 189 c-19 -34 -6 -47 42 -46 41 2 43 4 46 35 2 24 -1 32 -13 32
-11 0 -14 -6 -9 -24 3 -13 1 -27 -5 -30 -7 -5 -8 -1 -4 11 6 17 5 17 -14 1
-26 -24 -34 -23 -29 5 3 12 5 24 5 27 1 3 6 -2 11 -10 8 -13 10 -12 10 3 0 24
-27 21 -40 -4z"/>
<path d="M825 198 c-14 -44 -10 -52 27 -54 39 -3 58 14 58 50 0 26 -39 19 -50
-9 -5 -14 -12 -25 -16 -25 -3 0 -4 11 -2 25 5 25 -9 36 -17 13z m73 -15 c-2
-9 -8 -18 -15 -20 -7 -3 -9 3 -6 16 6 25 26 28 21 4z"/>
<path d="M1174 186 c-6 -26 1 -46 16 -46 5 0 7 6 4 13 -3 8 2 20 11 27 21 17
19 30 -5 30 -12 0 -22 -9 -26 -24z m36 10 c0 -3 -4 -8 -10 -11 -5 -3 -10 -1
-10 4 0 6 5 11 10 11 6 0 10 -2 10 -4z"/>
<path d="M1236 194 c-3 -8 -2 -12 4 -9 6 3 10 -1 10 -9 0 -8 -4 -18 -10 -21
-5 -3 -10 -1 -10 5 0 6 -5 8 -11 4 -21 -12 19 -26 41 -14 11 6 20 7 20 2 0
-15 70 -8 80 8 17 26 12 50 -10 50 -13 0 -25 -10 -32 -27 l-11 -28 -7 30 -7
30 -10 -24 c-10 -24 -10 -24 -15 -3 -7 26 -23 29 -32 6z m124 -8 c0 -15 -18
-31 -26 -23 -7 7 7 37 17 37 5 0 9 -6 9 -14z"/>
</g>
</svg>
